<?xml version="1.0" encoding="UTF-8" standalone="no"?>
<svg
   width="74"
   height="74"
   version="1.1"
   id="svg233"
   sodipodi:docname="paypal2.svg"
   xml:space="preserve"
   inkscape:version="1.3 (0e150ed6c4, 2023-07-21)"
   xmlns:inkscape="http://www.inkscape.org/namespaces/inkscape"
   xmlns:sodipodi="http://sodipodi.sourceforge.net/DTD/sodipodi-0.dtd"
   xmlns="http://www.w3.org/2000/svg"
   xmlns:svg="http://www.w3.org/2000/svg"><defs
     id="defs233" /><sodipodi:namedview
     id="namedview233"
     pagecolor="#ffffff"
     bordercolor="#666666"
     borderopacity="1.0"
     inkscape:showpageshadow="2"
     inkscape:pageopacity="0.0"
     inkscape:pagecheckerboard="0"
     inkscape:deskcolor="#d1d1d1"
     inkscape:zoom="10.878378"
     inkscape:cx="36.954037"
     inkscape:cy="37"
     inkscape:window-width="1920"
     inkscape:window-height="1011"
     inkscape:window-x="0"
     inkscape:window-y="0"
     inkscape:window-maximized="1"
     inkscape:current-layer="svg233" /><desc
     id="desc1">Zint Generated Symbol&#10;   </desc><g
     id="barcode"
     fill="#000000"><rect
       x="0"
       y="0"
       width="74"
       height="74"
       fill="#FFFFFF"
       id="rect1" /><rect
       x="4.00"
       y="4.00"
       width="14.00"
       height="2.00"
       id="rect2" /><rect
       x="20.00"
       y="4.00"
       width="14.00"
       height="2.00"
       id="rect3" /><rect
       x="36.00"
       y="4.00"
       width="6.00"
       height="2.00"
       id="rect4" /><rect
       x="48.00"
       y="4.00"
       width="2.00"
       height="2.00"
       id="rect5" /><rect
       x="56.00"
       y="4.00"
       width="14.00"
       height="2.00"
       id="rect6" /><rect
       x="4.00"
       y="6.00"
       width="2.00"
       height="10.00"
       id="rect7" /><rect
       x="16.00"
       y="6.00"
       width="2.00"
       height="10.00"
       id="rect8" /><rect
       x="20.00"
       y="6.00"
       width="8.00"
       height="2.00"
       id="rect9" /><rect
       x="30.00"
       y="6.00"
       width="4.00"
       height="2.00"
       id="rect10" /><rect
       x="36.00"
       y="6.00"
       width="8.00"
       height="2.00"
       id="rect11" /><rect
       x="46.00"
       y="6.00"
       width="4.00"
       height="2.00"
       id="rect12" /><rect
       x="52.00"
       y="6.00"
       width="2.00"
       height="4.00"
       id="rect13" /><rect
       x="56.00"
       y="6.00"
       width="2.00"
       height="10.00"
       id="rect14" /><rect
       x="68.00"
       y="6.00"
       width="2.00"
       height="10.00"
       id="rect15" /><rect
       x="8.00"
       y="8.00"
       width="6.00"
       height="6.00"
       id="rect16" /><rect
       x="20.00"
       y="8.00"
       width="2.00"
       height="2.00"
       id="rect17" /><rect
       x="24.00"
       y="8.00"
       width="2.00"
       height="2.00"
       id="rect18" /><rect
       x="30.00"
       y="8.00"
       width="6.00"
       height="2.00"
       id="rect19" /><rect
       x="38.00"
       y="8.00"
       width="2.00"
       height="2.00"
       id="rect20" /><rect
       x="44.00"
       y="8.00"
       width="4.00"
       height="2.00"
       id="rect21" /><rect
       x="60.00"
       y="8.00"
       width="6.00"
       height="6.00"
       id="rect22" /><rect
       x="26.00"
       y="10.00"
       width="2.00"
       height="2.00"
       id="rect23" /><rect
       x="32.00"
       y="10.00"
       width="2.00"
       height="2.00"
       id="rect24" /><rect
       x="36.00"
       y="10.00"
       width="2.00"
       height="2.00"
       id="rect25" /><rect
       x="40.00"
       y="10.00"
       width="4.00"
       height="2.00"
       id="rect26" /><rect
       x="46.00"
       y="10.00"
       width="2.00"
       height="2.00"
       id="rect27" /><rect
       x="20.00"
       y="12.00"
       width="12.00"
       height="2.00"
       id="rect28" /><rect
       x="34.00"
       y="12.00"
       width="4.00"
       height="2.00"
       id="rect29" /><rect
       x="40.00"
       y="12.00"
       width="2.00"
       height="2.00"
       id="rect30" /><rect
       x="44.00"
       y="12.00"
       width="4.00"
       height="2.00"
       id="rect31" /><rect
       x="50.00"
       y="12.00"
       width="2.00"
       height="2.00"
       id="rect32" /><rect
       x="24.00"
       y="14.00"
       width="4.00"
       height="2.00"
       id="rect33" /><rect
       x="30.00"
       y="14.00"
       width="10.00"
       height="2.00"
       id="rect34" /><rect
       x="42.00"
       y="14.00"
       width="2.00"
       height="2.00"
       id="rect35" /><rect
       x="48.00"
       y="14.00"
       width="6.00"
       height="2.00"
       id="rect36" /><rect
       x="4.00"
       y="16.00"
       width="14.00"
       height="2.00"
       id="rect37" /><rect
       x="20.00"
       y="16.00"
       width="2.00"
       height="2.00"
       id="rect38" /><rect
       x="24.00"
       y="16.00"
       width="2.00"
       height="2.00"
       id="rect39" /><rect
       x="28.00"
       y="16.00"
       width="2.00"
       height="2.00"
       id="rect40" /><rect
       x="32.00"
       y="16.00"
       width="2.00"
       height="2.00"
       id="rect41" /><rect
       x="36.00"
       y="16.00"
       width="2.00"
       height="2.00"
       id="rect42" /><rect
       x="40.00"
       y="16.00"
       width="2.00"
       height="2.00"
       id="rect43" /><rect
       x="44.00"
       y="16.00"
       width="2.00"
       height="2.00"
       id="rect44" /><rect
       x="48.00"
       y="16.00"
       width="2.00"
       height="2.00"
       id="rect45" /><rect
       x="52.00"
       y="16.00"
       width="2.00"
       height="2.00"
       id="rect46" /><rect
       x="56.00"
       y="16.00"
       width="14.00"
       height="2.00"
       id="rect47" /><rect
       x="26.00"
       y="18.00"
       width="6.00"
       height="2.00"
       id="rect48" /><rect
       x="34.00"
       y="18.00"
       width="4.00"
       height="2.00"
       id="rect49" /><rect
       x="42.00"
       y="18.00"
       width="4.00"
       height="2.00"
       id="rect50" /><rect
       x="48.00"
       y="18.00"
       width="4.00"
       height="2.00"
       id="rect51" /><rect
       x="4.00"
       y="20.00"
       width="2.00"
       height="2.00"
       id="rect52" /><rect
       x="10.00"
       y="20.00"
       width="12.00"
       height="2.00"
       id="rect53" /><rect
       x="26.00"
       y="20.00"
       width="2.00"
       height="2.00"
       id="rect54" /><rect
       x="36.00"
       y="20.00"
       width="6.00"
       height="2.00"
       id="rect55" /><rect
       x="50.00"
       y="20.00"
       width="2.00"
       height="4.00"
       id="rect56" /><rect
       x="54.00"
       y="20.00"
       width="2.00"
       height="2.00"
       id="rect57" /><rect
       x="60.00"
       y="20.00"
       width="2.00"
       height="2.00"
       id="rect58" /><rect
       x="64.00"
       y="20.00"
       width="6.00"
       height="2.00"
       id="rect59" /><rect
       x="4.00"
       y="22.00"
       width="4.00"
       height="2.00"
       id="rect60" /><rect
       x="10.00"
       y="22.00"
       width="4.00"
       height="2.00"
       id="rect61" /><rect
       x="18.00"
       y="22.00"
       width="2.00"
       height="2.00"
       id="rect62" /><rect
       x="22.00"
       y="22.00"
       width="4.00"
       height="4.00"
       id="rect63" /><rect
       x="28.00"
       y="22.00"
       width="4.00"
       height="4.00"
       id="rect64" /><rect
       x="34.00"
       y="22.00"
       width="2.00"
       height="4.00"
       id="rect65" /><rect
       x="38.00"
       y="22.00"
       width="6.00"
       height="2.00"
       id="rect66" /><rect
       x="46.00"
       y="22.00"
       width="2.00"
       height="4.00"
       id="rect67" /><rect
       x="60.00"
       y="22.00"
       width="8.00"
       height="2.00"
       id="rect68" /><rect
       x="10.00"
       y="24.00"
       width="2.00"
       height="2.00"
       id="rect69" /><rect
       x="16.00"
       y="24.00"
       width="4.00"
       height="2.00"
       id="rect70" /><rect
       x="40.00"
       y="24.00"
       width="2.00"
       height="2.00"
       id="rect71" /><rect
       x="50.00"
       y="24.00"
       width="4.00"
       height="2.00"
       id="rect72" /><rect
       x="56.00"
       y="24.00"
       width="2.00"
       height="2.00"
       id="rect73" /><rect
       x="60.00"
       y="24.00"
       width="10.00"
       height="2.00"
       id="rect74" /><rect
       x="4.00"
       y="26.00"
       width="10.00"
       height="2.00"
       id="rect75" /><rect
       x="20.00"
       y="26.00"
       width="4.00"
       height="2.00"
       id="rect76" /><rect
       x="26.00"
       y="26.00"
       width="6.00"
       height="4.00"
       id="rect77" /><rect
       x="38.00"
       y="26.00"
       width="6.00"
       height="2.00"
       id="rect78" /><rect
       x="56.00"
       y="26.00"
       width="4.00"
       height="4.00"
       id="rect79" /><rect
       x="64.00"
       y="26.00"
       width="6.00"
       height="2.00"
       id="rect80" /><rect
       x="6.00"
       y="28.00"
       width="4.00"
       height="2.00"
       id="rect81" /><rect
       x="16.00"
       y="28.00"
       width="2.00"
       height="2.00"
       id="rect82" /><rect
       x="20.00"
       y="28.00"
       width="2.00"
       height="2.00"
       id="rect83" /><rect
       x="34.00"
       y="28.00"
       width="4.00"
       height="2.00"
       id="rect84" /><rect
       x="42.00"
       y="28.00"
       width="4.00"
       height="2.00"
       id="rect85" /><rect
       x="52.00"
       y="28.00"
       width="2.00"
       height="2.00"
       id="rect86" /><rect
       x="4.00"
       y="30.00"
       width="6.00"
       height="2.00"
       id="rect87" /><rect
       x="12.00"
       y="30.00"
       width="4.00"
       height="2.00"
       id="rect88" /><rect
       x="20.00"
       y="30.00"
       width="6.00"
       height="2.00"
       id="rect89" /><rect
       x="30.00"
       y="30.00"
       width="4.00"
       height="2.00"
       id="rect90" /><rect
       x="38.00"
       y="30.00"
       width="2.00"
       height="2.00"
       id="rect91" /><rect
       x="42.00"
       y="30.00"
       width="2.00"
       height="2.00"
       id="rect92" /><rect
       x="46.00"
       y="30.00"
       width="2.00"
       height="2.00"
       id="rect93" /><rect
       x="50.00"
       y="30.00"
       width="2.00"
       height="2.00"
       id="rect94" /><rect
       x="58.00"
       y="30.00"
       width="2.00"
       height="2.00"
       id="rect95" /><rect
       x="64.00"
       y="30.00"
       width="2.00"
       height="2.00"
       id="rect96" /><rect
       x="12.00"
       y="32.00"
       width="6.00"
       height="2.00"
       id="rect97" /><rect
       x="20.00"
       y="32.00"
       width="2.00"
       height="2.00"
       id="rect98" /><rect
       x="26.00"
       y="32.00"
       width="2.00"
       height="4.00"
       id="rect99" /><rect
       x="30.00"
       y="32.00"
       width="10.00"
       height="2.00"
       id="rect100" /><rect
       x="44.00"
       y="32.00"
       width="6.00"
       height="2.00"
       id="rect101" /><rect
       x="56.00"
       y="32.00"
       width="2.00"
       height="2.00"
       id="rect102" /><rect
       x="62.00"
       y="32.00"
       width="2.00"
       height="2.00"
       id="rect103" /><rect
       x="4.00"
       y="34.00"
       width="4.00"
       height="2.00"
       id="rect104" /><rect
       x="12.00"
       y="34.00"
       width="2.00"
       height="2.00"
       id="rect105" /><rect
       x="32.00"
       y="34.00"
       width="2.00"
       height="2.00"
       id="rect106" /><rect
       x="36.00"
       y="34.00"
       width="2.00"
       height="4.00"
       id="rect107" /><rect
       x="44.00"
       y="34.00"
       width="2.00"
       height="4.00"
       id="rect108" /><rect
       x="50.00"
       y="34.00"
       width="2.00"
       height="2.00"
       id="rect109" /><rect
       x="54.00"
       y="34.00"
       width="2.00"
       height="2.00"
       id="rect110" /><rect
       x="58.00"
       y="34.00"
       width="2.00"
       height="2.00"
       id="rect111" /><rect
       x="62.00"
       y="34.00"
       width="4.00"
       height="2.00"
       id="rect112" /><rect
       x="68.00"
       y="34.00"
       width="2.00"
       height="2.00"
       id="rect113" /><rect
       x="6.00"
       y="36.00"
       width="8.00"
       height="2.00"
       id="rect114" /><rect
       x="16.00"
       y="36.00"
       width="6.00"
       height="2.00"
       id="rect115" /><rect
       x="30.00"
       y="36.00"
       width="4.00"
       height="2.00"
       id="rect116" /><rect
       x="48.00"
       y="36.00"
       width="2.00"
       height="2.00"
       id="rect117" /><rect
       x="52.00"
       y="36.00"
       width="10.00"
       height="2.00"
       id="rect118" /><rect
       x="4.00"
       y="38.00"
       width="2.00"
       height="2.00"
       id="rect119" /><rect
       x="12.00"
       y="38.00"
       width="2.00"
       height="2.00"
       id="rect120" /><rect
       x="18.00"
       y="38.00"
       width="6.00"
       height="2.00"
       id="rect121" /><rect
       x="26.00"
       y="38.00"
       width="2.00"
       height="2.00"
       id="rect122" /><rect
       x="32.00"
       y="38.00"
       width="4.00"
       height="4.00"
       id="rect123" /><rect
       x="38.00"
       y="38.00"
       width="8.00"
       height="2.00"
       id="rect124" /><rect
       x="52.00"
       y="38.00"
       width="6.00"
       height="2.00"
       id="rect125" /><rect
       x="60.00"
       y="38.00"
       width="2.00"
       height="2.00"
       id="rect126" /><rect
       x="64.00"
       y="38.00"
       width="2.00"
       height="2.00"
       id="rect127" /><rect
       x="68.00"
       y="38.00"
       width="2.00"
       height="4.00"
       id="rect128" /><rect
       x="4.00"
       y="40.00"
       width="8.00"
       height="2.00"
       id="rect129" /><rect
       x="16.00"
       y="40.00"
       width="2.00"
       height="2.00"
       id="rect130" /><rect
       x="20.00"
       y="40.00"
       width="2.00"
       height="2.00"
       id="rect131" /><rect
       x="28.00"
       y="40.00"
       width="2.00"
       height="4.00"
       id="rect132" /><rect
       x="38.00"
       y="40.00"
       width="10.00"
       height="2.00"
       id="rect133" /><rect
       x="50.00"
       y="40.00"
       width="2.00"
       height="4.00"
       id="rect134" /><rect
       x="56.00"
       y="40.00"
       width="4.00"
       height="2.00"
       id="rect135" /><rect
       x="62.00"
       y="40.00"
       width="4.00"
       height="2.00"
       id="rect136" /><rect
       x="4.00"
       y="42.00"
       width="2.00"
       height="2.00"
       id="rect137" /><rect
       x="12.00"
       y="42.00"
       width="2.00"
       height="2.00"
       id="rect138" /><rect
       x="22.00"
       y="42.00"
       width="2.00"
       height="4.00"
       id="rect139" /><rect
       x="56.00"
       y="42.00"
       width="2.00"
       height="2.00"
       id="rect140" /><rect
       x="60.00"
       y="42.00"
       width="10.00"
       height="2.00"
       id="rect141" /><rect
       x="14.00"
       y="44.00"
       width="4.00"
       height="2.00"
       id="rect142" /><rect
       x="28.00"
       y="44.00"
       width="8.00"
       height="2.00"
       id="rect143" /><rect
       x="44.00"
       y="44.00"
       width="2.00"
       height="2.00"
       id="rect144" /><rect
       x="48.00"
       y="44.00"
       width="2.00"
       height="2.00"
       id="rect145" /><rect
       x="52.00"
       y="44.00"
       width="2.00"
       height="2.00"
       id="rect146" /><rect
       x="60.00"
       y="44.00"
       width="4.00"
       height="2.00"
       id="rect147" /><rect
       x="66.00"
       y="44.00"
       width="4.00"
       height="2.00"
       id="rect148" /><rect
       x="4.00"
       y="46.00"
       width="6.00"
       height="2.00"
       id="rect149" /><rect
       x="14.00"
       y="46.00"
       width="2.00"
       height="2.00"
       id="rect150" /><rect
       x="20.00"
       y="46.00"
       width="4.00"
       height="2.00"
       id="rect151" /><rect
       x="32.00"
       y="46.00"
       width="6.00"
       height="2.00"
       id="rect152" /><rect
       x="40.00"
       y="46.00"
       width="4.00"
       height="2.00"
       id="rect153" /><rect
       x="50.00"
       y="46.00"
       width="2.00"
       height="2.00"
       id="rect154" /><rect
       x="54.00"
       y="46.00"
       width="2.00"
       height="2.00"
       id="rect155" /><rect
       x="58.00"
       y="46.00"
       width="8.00"
       height="2.00"
       id="rect156" /><rect
       x="4.00"
       y="48.00"
       width="2.00"
       height="4.00"
       id="rect157" /><rect
       x="10.00"
       y="48.00"
       width="2.00"
       height="2.00"
       id="rect158" /><rect
       x="16.00"
       y="48.00"
       width="4.00"
       height="2.00"
       id="rect159" /><rect
       x="22.00"
       y="48.00"
       width="8.00"
       height="2.00"
       id="rect160" /><rect
       x="32.00"
       y="48.00"
       width="2.00"
       height="2.00"
       id="rect161" /><rect
       x="38.00"
       y="48.00"
       width="2.00"
       height="2.00"
       id="rect162" /><rect
       x="44.00"
       y="48.00"
       width="4.00"
       height="2.00"
       id="rect163" /><rect
       x="50.00"
       y="48.00"
       width="10.00"
       height="2.00"
       id="rect164" /><rect
       x="62.00"
       y="48.00"
       width="8.00"
       height="2.00"
       id="rect165" /><rect
       x="8.00"
       y="50.00"
       width="6.00"
       height="2.00"
       id="rect166" /><rect
       x="18.00"
       y="50.00"
       width="4.00"
       height="2.00"
       id="rect167" /><rect
       x="26.00"
       y="50.00"
       width="2.00"
       height="2.00"
       id="rect168" /><rect
       x="30.00"
       y="50.00"
       width="4.00"
       height="2.00"
       id="rect169" /><rect
       x="36.00"
       y="50.00"
       width="6.00"
       height="2.00"
       id="rect170" /><rect
       x="48.00"
       y="50.00"
       width="4.00"
       height="2.00"
       id="rect171" /><rect
       x="54.00"
       y="50.00"
       width="8.00"
       height="2.00"
       id="rect172" /><rect
       x="64.00"
       y="50.00"
       width="2.00"
       height="2.00"
       id="rect173" /><rect
       x="4.00"
       y="52.00"
       width="4.00"
       height="2.00"
       id="rect174" /><rect
       x="16.00"
       y="52.00"
       width="2.00"
       height="2.00"
       id="rect175" /><rect
       x="22.00"
       y="52.00"
       width="2.00"
       height="2.00"
       id="rect176" /><rect
       x="26.00"
       y="52.00"
       width="6.00"
       height="2.00"
       id="rect177" /><rect
       x="36.00"
       y="52.00"
       width="2.00"
       height="2.00"
       id="rect178" /><rect
       x="44.00"
       y="52.00"
       width="2.00"
       height="2.00"
       id="rect179" /><rect
       x="50.00"
       y="52.00"
       width="14.00"
       height="2.00"
       id="rect180" /><rect
       x="66.00"
       y="52.00"
       width="4.00"
       height="2.00"
       id="rect181" /><rect
       x="20.00"
       y="54.00"
       width="4.00"
       height="2.00"
       id="rect182" /><rect
       x="26.00"
       y="54.00"
       width="4.00"
       height="4.00"
       id="rect183" /><rect
       x="34.00"
       y="54.00"
       width="4.00"
       height="2.00"
       id="rect184" /><rect
       x="40.00"
       y="54.00"
       width="2.00"
       height="2.00"
       id="rect185" /><rect
       x="44.00"
       y="54.00"
       width="4.00"
       height="2.00"
       id="rect186" /><rect
       x="50.00"
       y="54.00"
       width="4.00"
       height="6.00"
       id="rect187" /><rect
       x="60.00"
       y="54.00"
       width="2.00"
       height="4.00"
       id="rect188" /><rect
       x="64.00"
       y="54.00"
       width="4.00"
       height="2.00"
       id="rect189" /><rect
       x="4.00"
       y="56.00"
       width="14.00"
       height="2.00"
       id="rect190" /><rect
       x="20.00"
       y="56.00"
       width="2.00"
       height="2.00"
       id="rect191" /><rect
       x="34.00"
       y="56.00"
       width="6.00"
       height="2.00"
       id="rect192" /><rect
       x="42.00"
       y="56.00"
       width="2.00"
       height="2.00"
       id="rect193" /><rect
       x="46.00"
       y="56.00"
       width="2.00"
       height="2.00"
       id="rect194" /><rect
       x="56.00"
       y="56.00"
       width="2.00"
       height="2.00"
       id="rect195" /><rect
       x="64.00"
       y="56.00"
       width="2.00"
       height="2.00"
       id="rect196" /><rect
       x="4.00"
       y="58.00"
       width="2.00"
       height="10.00"
       id="rect197" /><rect
       x="16.00"
       y="58.00"
       width="2.00"
       height="10.00"
       id="rect198" /><rect
       x="20.00"
       y="58.00"
       width="6.00"
       height="2.00"
       id="rect199" /><rect
       x="28.00"
       y="58.00"
       width="8.00"
       height="2.00"
       id="rect200" /><rect
       x="38.00"
       y="58.00"
       width="4.00"
       height="2.00"
       id="rect201" /><rect
       x="60.00"
       y="58.00"
       width="8.00"
       height="2.00"
       id="rect202" /><rect
       x="8.00"
       y="60.00"
       width="6.00"
       height="6.00"
       id="rect203" /><rect
       x="20.00"
       y="60.00"
       width="4.00"
       height="2.00"
       id="rect204" /><rect
       x="30.00"
       y="60.00"
       width="4.00"
       height="2.00"
       id="rect205" /><rect
       x="36.00"
       y="60.00"
       width="2.00"
       height="2.00"
       id="rect206" /><rect
       x="42.00"
       y="60.00"
       width="4.00"
       height="2.00"
       id="rect207" /><rect
       x="50.00"
       y="60.00"
       width="12.00"
       height="2.00"
       id="rect208" /><rect
       x="66.00"
       y="60.00"
       width="2.00"
       height="2.00"
       id="rect209" /><rect
       x="20.00"
       y="62.00"
       width="6.00"
       height="2.00"
       id="rect210" /><rect
       x="28.00"
       y="62.00"
       width="4.00"
       height="2.00"
       id="rect211" /><rect
       x="34.00"
       y="62.00"
       width="2.00"
       height="2.00"
       id="rect212" /><rect
       x="40.00"
       y="62.00"
       width="6.00"
       height="2.00"
       id="rect213" /><rect
       x="48.00"
       y="62.00"
       width="2.00"
       height="2.00"
       id="rect214" /><rect
       x="54.00"
       y="62.00"
       width="2.00"
       height="2.00"
       id="rect215" /><rect
       x="58.00"
       y="62.00"
       width="2.00"
       height="2.00"
       id="rect216" /><rect
       x="64.00"
       y="62.00"
       width="6.00"
       height="4.00"
       id="rect217" /><rect
       x="24.00"
       y="64.00"
       width="2.00"
       height="2.00"
       id="rect218" /><rect
       x="32.00"
       y="64.00"
       width="2.00"
       height="4.00"
       id="rect219" /><rect
       x="42.00"
       y="64.00"
       width="8.00"
       height="2.00"
       id="rect220" /><rect
       x="52.00"
       y="64.00"
       width="2.00"
       height="2.00"
       id="rect221" /><rect
       x="58.00"
       y="64.00"
       width="4.00"
       height="2.00"
       id="rect222" /><rect
       x="22.00"
       y="66.00"
       width="2.00"
       height="2.00"
       id="rect223" /><rect
       x="26.00"
       y="66.00"
       width="4.00"
       height="2.00"
       id="rect224" /><rect
       x="42.00"
       y="66.00"
       width="4.00"
       height="2.00"
       id="rect225" /><rect
       x="48.00"
       y="66.00"
       width="4.00"
       height="2.00"
       id="rect226" /><rect
       x="56.00"
       y="66.00"
       width="14.00"
       height="2.00"
       id="rect227" /><rect
       x="4.00"
       y="68.00"
       width="14.00"
       height="2.00"
       id="rect228" /><rect
       x="20.00"
       y="68.00"
       width="8.00"
       height="2.00"
       id="rect229" /><rect
       x="30.00"
       y="68.00"
       width="10.00"
       height="2.00"
       id="rect230" /><rect
       x="42.00"
       y="68.00"
       width="2.00"
       height="2.00"
       id="rect231" /><rect
       x="50.00"
       y="68.00"
       width="6.00"
       height="2.00"
       id="rect232" /><rect
       x="58.00"
       y="68.00"
       width="4.00"
       height="2.00"
       id="rect233" /></g><g
     transform="matrix(0.09711204,0,0,0.09711286,116.71222,54.560044)"
     id="g3"><path
       clip-path="none"
       d="m -837.663,-237.968 a 5.49,5.49 0 0 0 -5.423,4.633 l -9.013,57.15 -8.281,52.514 -0.005,0.044 0.01,-0.044 8.281,-52.514 c 0.421,-2.669 2.719,-4.633 5.42,-4.633 h 26.404 c 26.573,0 49.127,-19.387 53.246,-45.658 0.314,-1.996 0.482,-3.973 0.52,-5.924 v -0.003 h -0.003 c -6.753,-3.543 -14.683,-5.565 -23.372,-5.565 z"
       fill="#001c64"
       id="path1" /><path
       clip-path="none"
       d="m -766.506,-232.402 c -0.037,1.951 -0.207,3.93 -0.52,5.926 -4.119,26.271 -26.673,45.658 -53.246,45.658 h -26.404 c -2.701,0 -4.999,1.964 -5.42,4.633 l -8.281,52.514 -5.197,32.947 a 4.46,4.46 0 0 0 4.405,5.153 h 28.66 a 5.49,5.49 0 0 0 5.423,-4.633 l 7.55,-47.881 c 0.423,-2.669 2.722,-4.636 5.423,-4.636 h 16.876 c 26.573,0 49.124,-19.386 53.243,-45.655 2.924,-18.649 -6.46,-35.614 -22.511,-44.026 z"
       fill="#0070e0"
       id="path2" /><path
       clip-path="none"
       d="m -870.225,-276.071 a 5.49,5.49 0 0 0 -5.423,4.636 l -22.489,142.608 a 4.46,4.46 0 0 0 4.405,5.156 h 33.351 l 8.281,-52.514 9.013,-57.15 a 5.49,5.49 0 0 1 5.423,-4.633 h 47.782 c 8.691,0 16.621,2.025 23.375,5.563 0.46,-23.917 -19.275,-43.666 -46.412,-43.666 z"
       fill="#003087"
       id="path3" /></g></svg>
