<?xml version="1.0" encoding="UTF-8" standalone="no"?>
<svg
   width="66"
   height="66"
   version="1.1"
   id="svg176"
   sodipodi:docname="venmo2.svg"
   xml:space="preserve"
   inkscape:version="1.3 (0e150ed6c4, 2023-07-21)"
   xmlns:inkscape="http://www.inkscape.org/namespaces/inkscape"
   xmlns:sodipodi="http://sodipodi.sourceforge.net/DTD/sodipodi-0.dtd"
   xmlns="http://www.w3.org/2000/svg"
   xmlns:svg="http://www.w3.org/2000/svg"><defs
     id="defs176"><style
       id="style1">.a{fill:#3396cd;}.b{fill:#fff;}</style></defs><sodipodi:namedview
     id="namedview176"
     pagecolor="#ffffff"
     bordercolor="#666666"
     borderopacity="1.0"
     inkscape:showpageshadow="2"
     inkscape:pageopacity="0.0"
     inkscape:pagecheckerboard="0"
     inkscape:deskcolor="#d1d1d1"
     inkscape:zoom="12.19697"
     inkscape:cx="32.959006"
     inkscape:cy="33"
     inkscape:window-width="1920"
     inkscape:window-height="1011"
     inkscape:window-x="0"
     inkscape:window-y="0"
     inkscape:window-maximized="1"
     inkscape:current-layer="svg176" /><desc
     id="desc1">Zint Generated Symbol&#10;   </desc><g
     id="barcode"
     fill="#000000"><rect
       x="0"
       y="0"
       width="66"
       height="66"
       fill="#FFFFFF"
       id="rect1" /><rect
       x="4.00"
       y="4.00"
       width="14.00"
       height="2.00"
       id="rect2" /><rect
       x="24.00"
       y="4.00"
       width="6.00"
       height="2.00"
       id="rect3" /><rect
       x="32.00"
       y="4.00"
       width="8.00"
       height="2.00"
       id="rect4" /><rect
       x="42.00"
       y="4.00"
       width="2.00"
       height="2.00"
       id="rect5" /><rect
       x="48.00"
       y="4.00"
       width="14.00"
       height="2.00"
       id="rect6" /><rect
       x="4.00"
       y="6.00"
       width="2.00"
       height="10.00"
       id="rect7" /><rect
       x="16.00"
       y="6.00"
       width="2.00"
       height="10.00"
       id="rect8" /><rect
       x="22.00"
       y="6.00"
       width="6.00"
       height="2.00"
       id="rect9" /><rect
       x="30.00"
       y="6.00"
       width="6.00"
       height="2.00"
       id="rect10" /><rect
       x="38.00"
       y="6.00"
       width="2.00"
       height="2.00"
       id="rect11" /><rect
       x="44.00"
       y="6.00"
       width="2.00"
       height="4.00"
       id="rect12" /><rect
       x="48.00"
       y="6.00"
       width="2.00"
       height="10.00"
       id="rect13" /><rect
       x="60.00"
       y="6.00"
       width="2.00"
       height="10.00"
       id="rect14" /><rect
       x="8.00"
       y="8.00"
       width="6.00"
       height="6.00"
       id="rect15" /><rect
       x="20.00"
       y="8.00"
       width="2.00"
       height="4.00"
       id="rect16" /><rect
       x="26.00"
       y="8.00"
       width="2.00"
       height="2.00"
       id="rect17" /><rect
       x="30.00"
       y="8.00"
       width="2.00"
       height="2.00"
       id="rect18" /><rect
       x="52.00"
       y="8.00"
       width="6.00"
       height="6.00"
       id="rect19" /><rect
       x="32.00"
       y="10.00"
       width="8.00"
       height="2.00"
       id="rect20" /><rect
       x="20.00"
       y="12.00"
       width="6.00"
       height="2.00"
       id="rect21" /><rect
       x="28.00"
       y="12.00"
       width="2.00"
       height="2.00"
       id="rect22" /><rect
       x="34.00"
       y="12.00"
       width="4.00"
       height="2.00"
       id="rect23" /><rect
       x="42.00"
       y="12.00"
       width="4.00"
       height="2.00"
       id="rect24" /><rect
       x="20.00"
       y="14.00"
       width="2.00"
       height="6.00"
       id="rect25" /><rect
       x="26.00"
       y="14.00"
       width="2.00"
       height="2.00"
       id="rect26" /><rect
       x="30.00"
       y="14.00"
       width="2.00"
       height="2.00"
       id="rect27" /><rect
       x="34.00"
       y="14.00"
       width="2.00"
       height="2.00"
       id="rect28" /><rect
       x="4.00"
       y="16.00"
       width="14.00"
       height="2.00"
       id="rect29" /><rect
       x="24.00"
       y="16.00"
       width="2.00"
       height="4.00"
       id="rect30" /><rect
       x="28.00"
       y="16.00"
       width="2.00"
       height="2.00"
       id="rect31" /><rect
       x="32.00"
       y="16.00"
       width="2.00"
       height="2.00"
       id="rect32" /><rect
       x="36.00"
       y="16.00"
       width="2.00"
       height="2.00"
       id="rect33" /><rect
       x="40.00"
       y="16.00"
       width="2.00"
       height="2.00"
       id="rect34" /><rect
       x="44.00"
       y="16.00"
       width="2.00"
       height="4.00"
       id="rect35" /><rect
       x="48.00"
       y="16.00"
       width="14.00"
       height="2.00"
       id="rect36" /><rect
       x="4.00"
       y="20.00"
       width="2.00"
       height="2.00"
       id="rect37" /><rect
       x="8.00"
       y="20.00"
       width="10.00"
       height="2.00"
       id="rect38" /><rect
       x="24.00"
       y="20.00"
       width="8.00"
       height="2.00"
       id="rect39" /><rect
       x="38.00"
       y="20.00"
       width="2.00"
       height="2.00"
       id="rect40" /><rect
       x="48.00"
       y="20.00"
       width="10.00"
       height="2.00"
       id="rect41" /><rect
       x="8.00"
       y="22.00"
       width="4.00"
       height="2.00"
       id="rect42" /><rect
       x="14.00"
       y="22.00"
       width="2.00"
       height="2.00"
       id="rect43" /><rect
       x="18.00"
       y="22.00"
       width="4.00"
       height="2.00"
       id="rect44" /><rect
       x="24.00"
       y="22.00"
       width="2.00"
       height="4.00"
       id="rect45" /><rect
       x="32.00"
       y="22.00"
       width="4.00"
       height="2.00"
       id="rect46" /><rect
       x="42.00"
       y="22.00"
       width="12.00"
       height="2.00"
       id="rect47" /><rect
       x="60.00"
       y="22.00"
       width="2.00"
       height="2.00"
       id="rect48" /><rect
       x="4.00"
       y="24.00"
       width="6.00"
       height="2.00"
       id="rect49" /><rect
       x="12.00"
       y="24.00"
       width="6.00"
       height="2.00"
       id="rect50" /><rect
       x="20.00"
       y="24.00"
       width="2.00"
       height="2.00"
       id="rect51" /><rect
       x="30.00"
       y="24.00"
       width="2.00"
       height="2.00"
       id="rect52" /><rect
       x="38.00"
       y="24.00"
       width="4.00"
       height="2.00"
       id="rect53" /><rect
       x="44.00"
       y="24.00"
       width="2.00"
       height="2.00"
       id="rect54" /><rect
       x="48.00"
       y="24.00"
       width="6.00"
       height="2.00"
       id="rect55" /><rect
       x="8.00"
       y="26.00"
       width="4.00"
       height="2.00"
       id="rect56" /><rect
       x="14.00"
       y="26.00"
       width="2.00"
       height="2.00"
       id="rect57" /><rect
       x="18.00"
       y="26.00"
       width="4.00"
       height="2.00"
       id="rect58" /><rect
       x="28.00"
       y="26.00"
       width="2.00"
       height="2.00"
       id="rect59" /><rect
       x="42.00"
       y="26.00"
       width="4.00"
       height="2.00"
       id="rect60" /><rect
       x="48.00"
       y="26.00"
       width="4.00"
       height="2.00"
       id="rect61" /><rect
       x="54.00"
       y="26.00"
       width="2.00"
       height="2.00"
       id="rect62" /><rect
       x="58.00"
       y="26.00"
       width="2.00"
       height="2.00"
       id="rect63" /><rect
       x="4.00"
       y="28.00"
       width="8.00"
       height="2.00"
       id="rect64" /><rect
       x="16.00"
       y="28.00"
       width="2.00"
       height="2.00"
       id="rect65" /><rect
       x="24.00"
       y="28.00"
       width="2.00"
       height="2.00"
       id="rect66" /><rect
       x="32.00"
       y="28.00"
       width="2.00"
       height="2.00"
       id="rect67" /><rect
       x="38.00"
       y="28.00"
       width="2.00"
       height="2.00"
       id="rect68" /><rect
       x="42.00"
       y="28.00"
       width="2.00"
       height="2.00"
       id="rect69" /><rect
       x="46.00"
       y="28.00"
       width="2.00"
       height="2.00"
       id="rect70" /><rect
       x="54.00"
       y="28.00"
       width="4.00"
       height="2.00"
       id="rect71" /><rect
       x="6.00"
       y="30.00"
       width="2.00"
       height="2.00"
       id="rect72" /><rect
       x="12.00"
       y="30.00"
       width="2.00"
       height="2.00"
       id="rect73" /><rect
       x="22.00"
       y="30.00"
       width="2.00"
       height="4.00"
       id="rect74" /><rect
       x="26.00"
       y="30.00"
       width="2.00"
       height="2.00"
       id="rect75" /><rect
       x="30.00"
       y="30.00"
       width="2.00"
       height="2.00"
       id="rect76" /><rect
       x="34.00"
       y="30.00"
       width="2.00"
       height="2.00"
       id="rect77" /><rect
       x="40.00"
       y="30.00"
       width="14.00"
       height="2.00"
       id="rect78" /><rect
       x="60.00"
       y="30.00"
       width="2.00"
       height="2.00"
       id="rect79" /><rect
       x="4.00"
       y="32.00"
       width="8.00"
       height="2.00"
       id="rect80" /><rect
       x="14.00"
       y="32.00"
       width="6.00"
       height="2.00"
       id="rect81" /><rect
       x="28.00"
       y="32.00"
       width="6.00"
       height="2.00"
       id="rect82" /><rect
       x="36.00"
       y="32.00"
       width="2.00"
       height="2.00"
       id="rect83" /><rect
       x="44.00"
       y="32.00"
       width="2.00"
       height="2.00"
       id="rect84" /><rect
       x="48.00"
       y="32.00"
       width="2.00"
       height="2.00"
       id="rect85" /><rect
       x="54.00"
       y="32.00"
       width="4.00"
       height="2.00"
       id="rect86" /><rect
       x="6.00"
       y="34.00"
       width="8.00"
       height="2.00"
       id="rect87" /><rect
       x="18.00"
       y="34.00"
       width="4.00"
       height="2.00"
       id="rect88" /><rect
       x="26.00"
       y="34.00"
       width="2.00"
       height="2.00"
       id="rect89" /><rect
       x="34.00"
       y="34.00"
       width="4.00"
       height="2.00"
       id="rect90" /><rect
       x="42.00"
       y="34.00"
       width="2.00"
       height="2.00"
       id="rect91" /><rect
       x="46.00"
       y="34.00"
       width="6.00"
       height="2.00"
       id="rect92" /><rect
       x="58.00"
       y="34.00"
       width="2.00"
       height="2.00"
       id="rect93" /><rect
       x="4.00"
       y="36.00"
       width="2.00"
       height="10.00"
       id="rect94" /><rect
       x="8.00"
       y="36.00"
       width="2.00"
       height="2.00"
       id="rect95" /><rect
       x="12.00"
       y="36.00"
       width="2.00"
       height="2.00"
       id="rect96" /><rect
       x="16.00"
       y="36.00"
       width="2.00"
       height="2.00"
       id="rect97" /><rect
       x="22.00"
       y="36.00"
       width="2.00"
       height="2.00"
       id="rect98" /><rect
       x="26.00"
       y="36.00"
       width="4.00"
       height="2.00"
       id="rect99" /><rect
       x="32.00"
       y="36.00"
       width="2.00"
       height="2.00"
       id="rect100" /><rect
       x="38.00"
       y="36.00"
       width="2.00"
       height="2.00"
       id="rect101" /><rect
       x="54.00"
       y="36.00"
       width="4.00"
       height="2.00"
       id="rect102" /><rect
       x="8.00"
       y="38.00"
       width="8.00"
       height="2.00"
       id="rect103" /><rect
       x="20.00"
       y="38.00"
       width="12.00"
       height="2.00"
       id="rect104" /><rect
       x="34.00"
       y="38.00"
       width="4.00"
       height="2.00"
       id="rect105" /><rect
       x="42.00"
       y="38.00"
       width="12.00"
       height="2.00"
       id="rect106" /><rect
       x="56.00"
       y="38.00"
       width="2.00"
       height="4.00"
       id="rect107" /><rect
       x="60.00"
       y="38.00"
       width="2.00"
       height="2.00"
       id="rect108" /><rect
       x="8.00"
       y="40.00"
       width="2.00"
       height="2.00"
       id="rect109" /><rect
       x="16.00"
       y="40.00"
       width="4.00"
       height="2.00"
       id="rect110" /><rect
       x="22.00"
       y="40.00"
       width="4.00"
       height="2.00"
       id="rect111" /><rect
       x="28.00"
       y="40.00"
       width="2.00"
       height="4.00"
       id="rect112" /><rect
       x="32.00"
       y="40.00"
       width="4.00"
       height="2.00"
       id="rect113" /><rect
       x="38.00"
       y="40.00"
       width="4.00"
       height="2.00"
       id="rect114" /><rect
       x="44.00"
       y="40.00"
       width="4.00"
       height="2.00"
       id="rect115" /><rect
       x="50.00"
       y="40.00"
       width="4.00"
       height="2.00"
       id="rect116" /><rect
       x="12.00"
       y="42.00"
       width="4.00"
       height="2.00"
       id="rect117" /><rect
       x="20.00"
       y="42.00"
       width="4.00"
       height="2.00"
       id="rect118" /><rect
       x="34.00"
       y="42.00"
       width="2.00"
       height="2.00"
       id="rect119" /><rect
       x="40.00"
       y="42.00"
       width="6.00"
       height="2.00"
       id="rect120" /><rect
       x="48.00"
       y="42.00"
       width="6.00"
       height="2.00"
       id="rect121" /><rect
       x="58.00"
       y="42.00"
       width="2.00"
       height="2.00"
       id="rect122" /><rect
       x="8.00"
       y="44.00"
       width="2.00"
       height="2.00"
       id="rect123" /><rect
       x="14.00"
       y="44.00"
       width="4.00"
       height="2.00"
       id="rect124" /><rect
       x="22.00"
       y="44.00"
       width="2.00"
       height="2.00"
       id="rect125" /><rect
       x="26.00"
       y="44.00"
       width="4.00"
       height="2.00"
       id="rect126" /><rect
       x="34.00"
       y="44.00"
       width="4.00"
       height="2.00"
       id="rect127" /><rect
       x="42.00"
       y="44.00"
       width="12.00"
       height="2.00"
       id="rect128" /><rect
       x="56.00"
       y="44.00"
       width="6.00"
       height="2.00"
       id="rect129" /><rect
       x="20.00"
       y="46.00"
       width="4.00"
       height="2.00"
       id="rect130" /><rect
       x="30.00"
       y="46.00"
       width="2.00"
       height="2.00"
       id="rect131" /><rect
       x="34.00"
       y="46.00"
       width="2.00"
       height="2.00"
       id="rect132" /><rect
       x="38.00"
       y="46.00"
       width="2.00"
       height="2.00"
       id="rect133" /><rect
       x="44.00"
       y="46.00"
       width="2.00"
       height="2.00"
       id="rect134" /><rect
       x="52.00"
       y="46.00"
       width="10.00"
       height="2.00"
       id="rect135" /><rect
       x="4.00"
       y="48.00"
       width="14.00"
       height="2.00"
       id="rect136" /><rect
       x="26.00"
       y="48.00"
       width="2.00"
       height="2.00"
       id="rect137" /><rect
       x="30.00"
       y="48.00"
       width="10.00"
       height="2.00"
       id="rect138" /><rect
       x="42.00"
       y="48.00"
       width="4.00"
       height="2.00"
       id="rect139" /><rect
       x="48.00"
       y="48.00"
       width="2.00"
       height="2.00"
       id="rect140" /><rect
       x="52.00"
       y="48.00"
       width="6.00"
       height="2.00"
       id="rect141" /><rect
       x="4.00"
       y="50.00"
       width="2.00"
       height="10.00"
       id="rect142" /><rect
       x="16.00"
       y="50.00"
       width="2.00"
       height="10.00"
       id="rect143" /><rect
       x="20.00"
       y="50.00"
       width="2.00"
       height="2.00"
       id="rect144" /><rect
       x="26.00"
       y="50.00"
       width="6.00"
       height="2.00"
       id="rect145" /><rect
       x="34.00"
       y="50.00"
       width="4.00"
       height="2.00"
       id="rect146" /><rect
       x="44.00"
       y="50.00"
       width="2.00"
       height="2.00"
       id="rect147" /><rect
       x="52.00"
       y="50.00"
       width="2.00"
       height="2.00"
       id="rect148" /><rect
       x="60.00"
       y="50.00"
       width="2.00"
       height="4.00"
       id="rect149" /><rect
       x="8.00"
       y="52.00"
       width="6.00"
       height="6.00"
       id="rect150" /><rect
       x="20.00"
       y="52.00"
       width="6.00"
       height="2.00"
       id="rect151" /><rect
       x="28.00"
       y="52.00"
       width="2.00"
       height="2.00"
       id="rect152" /><rect
       x="32.00"
       y="52.00"
       width="2.00"
       height="2.00"
       id="rect153" /><rect
       x="36.00"
       y="52.00"
       width="4.00"
       height="2.00"
       id="rect154" /><rect
       x="44.00"
       y="52.00"
       width="10.00"
       height="2.00"
       id="rect155" /><rect
       x="56.00"
       y="52.00"
       width="2.00"
       height="2.00"
       id="rect156" /><rect
       x="20.00"
       y="54.00"
       width="2.00"
       height="2.00"
       id="rect157" /><rect
       x="24.00"
       y="54.00"
       width="6.00"
       height="2.00"
       id="rect158" /><rect
       x="38.00"
       y="54.00"
       width="6.00"
       height="2.00"
       id="rect159" /><rect
       x="54.00"
       y="54.00"
       width="4.00"
       height="2.00"
       id="rect160" /><rect
       x="20.00"
       y="56.00"
       width="4.00"
       height="2.00"
       id="rect161" /><rect
       x="30.00"
       y="56.00"
       width="2.00"
       height="2.00"
       id="rect162" /><rect
       x="34.00"
       y="56.00"
       width="2.00"
       height="2.00"
       id="rect163" /><rect
       x="40.00"
       y="56.00"
       width="20.00"
       height="2.00"
       id="rect164" /><rect
       x="24.00"
       y="58.00"
       width="2.00"
       height="2.00"
       id="rect165" /><rect
       x="32.00"
       y="58.00"
       width="6.00"
       height="2.00"
       id="rect166" /><rect
       x="44.00"
       y="58.00"
       width="2.00"
       height="2.00"
       id="rect167" /><rect
       x="48.00"
       y="58.00"
       width="2.00"
       height="2.00"
       id="rect168" /><rect
       x="54.00"
       y="58.00"
       width="2.00"
       height="2.00"
       id="rect169" /><rect
       x="58.00"
       y="58.00"
       width="2.00"
       height="2.00"
       id="rect170" /><rect
       x="4.00"
       y="60.00"
       width="14.00"
       height="2.00"
       id="rect171" /><rect
       x="20.00"
       y="60.00"
       width="4.00"
       height="2.00"
       id="rect172" /><rect
       x="34.00"
       y="60.00"
       width="2.00"
       height="2.00"
       id="rect173" /><rect
       x="38.00"
       y="60.00"
       width="2.00"
       height="2.00"
       id="rect174" /><rect
       x="42.00"
       y="60.00"
       width="2.00"
       height="2.00"
       id="rect175" /><rect
       x="48.00"
       y="60.00"
       width="10.00"
       height="2.00"
       id="rect176" /></g><g
     id="g176"
     transform="matrix(0.03197674,0,0,0.03197674,24.75,24.75)"><rect
       class="a"
       width="516"
       height="516"
       rx="61"
       ry="61"
       id="rect1-3"
       x="0"
       y="0" /><path
       class="b"
       d="m 385.16,105 c 11.1,18.3 16.08,37.17 16.08,61 0,76 -64.87,174.7 -117.52,244 H 163.49 l -48.21,-288.35 105.31,-10 25.61,205.17 C 270,278 299.43,217 299.43,175.44 c 0,-22.77 -3.9,-38.25 -10,-51 z"
       id="path1" /></g></svg>
